<?xml version="1.0" encoding="utf-8"?>
<svg version="1.1" id="Layer_1" xmlns="http://www.w3.org/2000/svg" xmlns:xlink="http://www.w3.org/1999/xlink" x="0px" y="0px"
	 width="469.835px" height="706.729px" viewBox="0 0 469.835 706.729" enable-background="new 0 0 469.835 706.729"
	 xml:space="preserve">
<path fill="#000000" d="M447.015,260.129c-8.021-8.022-7.334-20.996-12.947-29.018c-3.408-4.868-13.906-12.902-21.934-18.336
	c-10.799-7.312-11.946-7.911-18.026-12.523c0.134-0.135,0.272-0.27,0.429-0.401c0.721-0.614,1.45-1.222,2.182-1.831
	c5.045-3.408,10.1-6.796,15.139-10.215c6.156-4.175,12.91-7.961,17.084-14.345c5.041-7.713,4.879-17.396,4.666-26.258
	c-0.133-5.49-0.473-10.991-0.471-16.483c0.004-7.528,1.223-12.253,6.729-17.575c4.996-4.831,9.785-9.884,14.262-15.201
	c4.025-4.782,8.281-9.812,10.088-15.909c1.752-5.908,0.695-12.537,0.715-18.613c0.027-8.328-0.453-16.637-1.172-24.931
	c-0.574-6.628-0.723-13.882-2.68-20.273c-0.301-0.984-2.123-4.75-1.449-5.734c-2.184,3.2-1.453,7.446-1.646,11.285
	c-0.365,7.203-0.826,14.399-1.008,21.611c-0.197,7.917,0.26,15.964-1.674,23.718c-1.74,6.989-5.016,13.63-9.287,19.413
	c-3.828,5.182-8.352,9.866-13.354,13.922c-1.42,1.151-3.129,2.139-4.871,2.657c-10.619,3.156-15.881-11.434-19.229-18.708
	c-7.061-15.341-14.969-30.029-19.824-46.28c-0.373-1.253-0.734-2.511-1.072-3.676c-1.305-0.442-1.941-0.048-1.889,1.121
	c0.121,2.741,0.043,5.533,0.535,8.212c1.188,6.487,2.406,12.991,4.109,19.354c1.602,5.984,4.649,11.469,6.865,17.227
	c1.637,4.249,3.01,8.591,4.405,12.923c0.603,1.865,1.446,4.274-0.336,5.754c-1.524,1.267-4.088,0.88-5.701,0.032
	c-5.084-2.673-6.563-10.562-8.315-15.484c-0.922-2.587-1.75-5.213-2.672-7.799c-0.197-0.553-0.633-1.024-1.623-1.474
	c-0.109,0.752-0.406,1.533-0.304,2.254c2.097,14.648,8.433,31.892,1.609,46.177c-2.128,4.455-5.146,8.494-8.865,11.74
	c-0.104,0.089-0.211,0.171-0.313,0.26c-0.029-0.078-0.06-0.153-0.086-0.23c-1.98-5.445-3.285-11.103-4.31-16.798
	c-0.51-2.838-0.948-5.689-1.381-8.54c-0.356-2.367-0.228-5.76-1.752-7.736c0.323,0.419-0.675,3.642-0.777,4.275
	c-0.944,5.794-0.646,11.031-0.139,16.86c0.433,4.982,1.604,9.866,2.062,14.812c0.262,2.837-1.543,3.407-3.722,4.95
	c-1.562,1.105-3.297,1.912-5.375,1.805c-3.028-0.156-5.244-1.633-6.953-3.959c-5.37-7.312-8.515-14.126-9.965-23.139
	c-1.185-7.362-4.021-13.363,1.912-19.393c2.151-2.189,4.892-3.667,7.151-5.73c2.521-2.298,4.938-4.717,7.438-7.04
	c5.498-5.106,10.422-10.766,15.006-16.697c3.455-4.472,5.781-9.61,8.351-14.593c0.408-0.795,0.211-1.902,0.299-2.903
	c-2.1,0.183-2.135,0.157-2.863,1.079c-1.297,1.643-2.566,3.313-3.826,4.986c-4.615,6.134-9.107,12.412-14.447,17.95
	c-4.854,5.03-12.326,12.063-19.682,12.742c-2.619,0.244-4.904-0.873-4.352-4.516c1.693-11.18,2.385-24.187,11.797-31.978
	c3.953-3.27,7.402-7.016,10.688-10.946c1.289-1.548,3.059-2.624,5.129-3.013c2.846-0.535,5.406-1.756,7.859-3.244
	c3.096-1.875,5.682-4.173,6.568-7.876c0.174-0.739,0.326-1.605-0.697-1.85c-0.846-0.206-1.516,0.14-1.648,1.083
	c-0.176,1.281-1.059,1.825-2.15,2.161c-3.202,0.989-6.422,1.931-9.612,2.958c-1.353,0.438-2.457,0.331-3.358-0.956
	c-1.023-1.461,0.889-8.218,1.192-9.871c0.761-4.133,1.873-8.256,3.815-12.002c1.189-2.293,1.931-4.819,2.838-7.253
	c0.25-0.663,0.531-1.405-0.45-2.124c-0.476,0.709-1.021,1.259-1.256,1.919c-2.134,5.984-7.606,9.977-9.947,15.877
	c-1.844,4.654-2.172,9.778-4.375,14.304c-2.036,4.182-6.556,8.869-11.25,9.758c-5.685,1.076-9.86-3.603-13.618-7.113
	c-3.662-3.42-7.189-6.982-10.755-10.508c-0.31-0.303-0.459-0.762-0.702-1.184c3.959-1.302,6.235-2.8,8.588-5.686
	c0.565-0.695,1.014-1.492,0.391-2.549c-0.836,0.386-1.672,0.623-2.326,1.102c-3.947,2.881-9.514,2.207-13.736,0.407
	c-4.869-2.075-7.99-6.802-12.721-9.254c-1.035-0.537-2.141-1.537-3.49-0.168c0.359,0.477,0.633,1.006,1.049,1.364
	c3.098,2.659,5.348,5.933,7.172,9.552c0.674,1.341,1.367,2.74,2.353,3.843c1.838,2.055,3.901,3.907,5.856,5.857
	c1.951,1.95,4.008,3.812,5.797,5.901c2.343,2.732,4.369,5.738,6.711,8.469c4.015,4.678,6.224,9.846,5.23,16.132
	c-3.339,21.092-3.438,41.018,1.868,61.745c1.207,4.709,2.813,9.248,4.808,13.622c-1.263,2.025-2.967,3.675-5.392,4.642
	c-5.604,2.242-11.539,2.841-17.428,3.603c-2.31,0.297-4.013-1.085-4.613-3.403c-1.274-4.923-1.767-9.922-0.522-14.928
	c0.809-3.243,1.801-6.44,2.803-9.629c0.266-0.851,0.729-1.755,1.371-2.348c1.957-1.821,3.967-3.605,6.098-5.219
	c3.277-2.482,4.486-5.939,4.107-9.732c-0.504-5.069-1.568-10.087-2.439-15.119c-0.094-0.547-0.49-1.046-0.746-1.567
	c-0.613,0.557-0.82,1-0.834,1.448c-0.07,2.093-0.059,4.193-0.127,6.287c-0.088,2.932-0.133,5.866-0.361,8.786
	c-0.231,2.939-2.121,4.661-4.752,5.614c-1.998,0.725-3.092-0.144-2.979-2.252c0.067-1.257,0.353-2.53,0.223-3.76
	c-0.473-4.356-0.125-8.68,0.24-13.013c0.269-3.171,0.784-6.363,0.633-9.515c-0.243-5.02-0.873-10.027-1.521-15.016
	c-0.266-2.061-0.973-4.071-1.521-6.091c-0.233-0.861-0.788-0.999-1.635-0.375c0.026,0.925,0.058,1.923,0.077,2.92
	c0.146,7.386-0.141,14.722-1.413,22.042c-1.108,6.357-1.781,12.793-2.589,19.201c-0.438,3.516-1.129,6.965-2.504,10.24
	c-1.246,2.968-3.487,4.736-6.739,4.816c-1.388,0.03-2.856-0.291-4.156-0.797c-7.286-2.84-14.291-7.134-19.604-12.932
	c-7.492-8.177-9.215-18.781-13.154-28.732c-1.389-3.507-2.795-7.007-4.17-10.519c-0.951-2.433-1.344-5.208-3.559-6.875
	c-0.477,5.608,1.602,11.769,2.741,17.219c1.255,6.008,2.429,12.037,4.005,17.972c0.885,3.336,1.897,6.641,3.114,9.873
	c3.636,9.66,10.53,14.938,19.528,19.507c3.574,1.815,7.465,3.251,10.912,5.291c3.965,2.346,5.287,6.271,6.695,10.419
	c3.713,10.939,4.895,25.458,16.137,31.664c9.457,5.221,20.899,6.931,31.205,9.867c4.869,1.388,9.924,1.532,12.569,6.62
	c1.925,3.701,2.738,10.657,1.318,14.625c-1.365,3.819-4.902,0.899-7.849,0.5c-4.113-0.557-9.955-0.944-11.416,3.981
	c-1.051,3.549,0.322,8.393,1.59,11.685c4.013,10.43,15.24,16.045,24.064,20.86l-4.813,4.812c-2.504,3.599-2.379,2.816-4.811,7.218
	c-12.837,21.663-28.884,41.717-46.529,57.761c-17.65,16.046-28.883,36.9-44.928,53.751c-16.044,17.647-30.485,28.076-53.749,35.301
	c-10.428,4.008-19.253,5.611-28.077,12.836c-4.921,4.914-9.842,11.07-15.842,14.678c1.794-10.532-0.918-29.209-5.017-32.327
	c-9.023-6.875-15.243,24.065-15.243,32.088c-0.461,13.326,4.011,24.065,0.805,35.299c-2.406,12.031-11.232,23.264-16.849,33.688
	c-12.034,22.466-28.076,36.904-46.529,52.949c-12.033,10.428-11.229,8.824-15.242,23.267c-2.406,8.823-9.626,16.848-13.637,25.67
	c-4.185,8.366-8.591,16.512-13.055,24.602c-6.502,7.971-13.025,15.928-19.56,23.877c-2.323,2.826-2.506,7.228-3.344,10.668
	c-1.076,4.418-2.184,8.838-3.438,13.211c-7.7,10.519-17.724,18.099-10.342,33.535c14.44-6.418,24.066-27.277,28.076-40.912
	c0.162-0.44,0.334-0.91,0.511-1.399c5.891-10.964,11.517-22.246,19.88-31.466c8.863-9.771,17.969-18.723,25.311-29.78
	c8.188-12.328,16.468-22.279,27.602-31.97c1.439-1.254,2.885-2.52,4.307-3.813c7.34-3.625,14.767-6.908,21.868-11.478
	c13.724-9.395,38.503-22.024,52.088-9.803c-14.79,10.406-27.095,23.133-36.06,35.035c-8.717,11.572-15.624,20.033-12.384,35.037
	c-0.373,7.91-0.295,15.838-0.522,23.75c-2.09,5.199-3.212,10.916-5.331,16.051c-2.139,5.18-4.574,10.24-6.983,15.295
	c-1.562,3.271,0.963,8.365,1.839,11.521c0.538,1.94,1.073,3.881,1.615,5.821c-0.848,10.183,4.004,27.228,15.771,29.824
	c2.299,0.869,4.976,1.244,8.164,0.918c2.515-0.26,5.018-2.512,4.04-5.303c-4.191-11.971-9.53-17.117-13.001-29.313
	c0.427-4.253,2.663-15.664,3.601-20.535c0.195-1.181,0.385-2.422,0.567-3.701c1.683-5.435,3.087-10.955,3.739-16.711
	c0.928-8.201,1.773-16.41,2.86-24.576c0.121-0.445,0.256-0.875,0.381-1.318c9.497-9.33,20.497-16.17,33.265-20.955
	c12.947-4.85,26.979-8.18,36.657-18.825c1.722-1.896,3.265-3.871,4.661-5.91c14.903-14.088,10.297-37.224,22.961-54.812
	c16.847-9.627,32.089-18.453,47.331-29.682c20.053-12.834,33.693-27.277,56.156-18.453c17.648,6.418,37.703,0.805,55.352,9.629
	c8.824,4.814,8.023,8.021,6.418,20.053c-1.605,10.433-4.012,21.662-13.637,28.078c-4.01,2.408-10.43,4.814-13.639,6.422
	c-4.813,3.209-8.021,4.812-12.834,7.22c-7.222,3.205-35.361-13.422-24.066,14.436c3.123,0.377,23.613,4.314,48.135-12.029
	c1.602,13.64,2.738,18.82,17.646,2.404c1.604-4.008,0.801-8.82,3.209-12.83c1.605-4.012,6.416-7.223,8.021-9.631
	c4.813-10.428,4.813-14.441,14.439-22.463c6.418-5.613,15.24-11.23,13.639-21.658c-3.209-12.836-54.477-44.279-64.98-55.354
	c-8.834-9.312-3.209-23.265-7.219-35.302c-4.814-12.03-4.814-17.646-2.408-31.282c2.408-10.433,6.418-20.861,12.838-30.488
	c4.01-7.218,12.834-23.264,20.854-25.669c12.837-4.012,48.937,24.064,56.155,0.803C472.687,278.58,453.431,266.547,447.015,260.129z
	 M340.744,159.23c-4.285-0.963-9.455-1.889-13.211-2.92c-2.127-0.584-9.509-2.867-10.797-3.255
	c-0.746-0.225-2.844-1.134-2.893-1.434c-0.107-0.669,2.412-0.777,2.867-0.852c1.131-0.188,2.264-0.375,3.397-0.548
	c6.765-1.034,12.681-3.992,17.552-8.642c0.44-0.421,0.854-0.861,1.239-1.316c0.49,0.847,0.994,1.688,1.519,2.521
	c1.781,2.833,3.51,5.713,5.065,8.674c1.556,2.959,2.464,6.132,3.144,9.372C345.982,160.365,343.356,159.817,340.744,159.23z
	 M389.736,130.624c3.084-4.849,4.961-10.183,4.463-15.971c-0.182-2.131-0.457-4.25-0.865-6.337c0.457,0.213,0.929,0.414,1.426,0.589
	c3.308,1.162,6.527,2.586,9.701,4.077c1.037,0.483,1.978,1.428,2.65,2.384c2.525,3.58,5.043,7.175,7.35,10.899
	c3.551,5.752,4.939,12.189,5.316,18.846c0.178,3.134-1.396,5.541-4.396,6.094c-7.657,1.402-15.307,3.029-23.198,2.472
	c-4.49-0.315-7.906-2.591-10.731-5.732c-0.976-1.083-1.822-2.247-2.591-3.461C383,140.297,386.559,135.608,389.736,130.624z
	 M387.197,184.612c-2.525,1.509-7.232,5.801-10.27,3.448c-1.109-0.86-2.215-1.8-3.16-2.842c-5.65-6.228-11.08-16.168-10.029-24.792
	c0.344-2.83,1.639-4.992,3.953-6.673c1.738-1.265,3.467-2.552,5.152-3.891c-0.635,0.504,5.451,7.406,6.123,7.998
	c2.67,2.357,5.9,3.925,9.25,5.067c9.645,3.285,19.389,2.299,29.246,0.804c0.119,0.215,0.24,0.419,0.359,0.631
	c-1.027,0.931-1.976,1.983-3.104,2.771c-5.315,3.725-10.538,7.695-16.11,11.032C394.859,180.411,390.949,182.371,387.197,184.612z
	 M425.314,272.944c-16.111,4.369-2.363-11.644-7.697-16.984c-1.602-1.606-11.783-0.355-14.22-0.426
	c-2.468-0.075-1.446,10.16-1.509,12.365c-0.262,8.628-8.379,4.906-8.125-3.595c0.152-5.153-2.557-27.576,0.932-31.095
	c10.348-10.433,7.531,15.195,7.768,15.447c1.467,1.567,11.888,0.355,14.223,0.425c2.445,0.073,1.41-9.086,1.475-11.222
	c0.246-8.241,8.334-4.259,8.082,3.991C425.933,252.213,425.625,262.579,425.314,272.944z"/>
</svg>
